<mxfile host="app.diagrams.net" modified="2023-08-24T03:21:03.365Z" agent="Mozilla/5.0 (Windows NT 10.0; Win64; x64) AppleWebKit/537.36 (KHTML, like Gecko) Chrome/116.0.0.0 Safari/537.36" etag="AdQmphAqSVs80Ly73k_K" version="21.3.2" type="device">
  <diagram id="C5RBs43oDa-KdzZeNtuy" name="Page-1">
    <mxGraphModel dx="1754" dy="2000" grid="1" gridSize="10" guides="1" tooltips="1" connect="1" arrows="1" fold="1" page="1" pageScale="1" pageWidth="827" pageHeight="1169" math="0" shadow="0">
      <root>
        <mxCell id="WIyWlLk6GJQsqaUBKTNV-0" />
        <mxCell id="WIyWlLk6GJQsqaUBKTNV-1" parent="WIyWlLk6GJQsqaUBKTNV-0" />
        <mxCell id="Sqmhbc1ZD-lSzO9IeYPr-2" value="" style="edgeStyle=orthogonalEdgeStyle;rounded=0;orthogonalLoop=1;jettySize=auto;html=1;" edge="1" parent="WIyWlLk6GJQsqaUBKTNV-1" source="Sqmhbc1ZD-lSzO9IeYPr-0" target="Sqmhbc1ZD-lSzO9IeYPr-1">
          <mxGeometry relative="1" as="geometry" />
        </mxCell>
        <mxCell id="Sqmhbc1ZD-lSzO9IeYPr-0" value="start" style="ellipse;whiteSpace=wrap;html=1;" vertex="1" parent="WIyWlLk6GJQsqaUBKTNV-1">
          <mxGeometry x="220" y="50" width="120" height="80" as="geometry" />
        </mxCell>
        <mxCell id="Sqmhbc1ZD-lSzO9IeYPr-4" value="" style="edgeStyle=orthogonalEdgeStyle;rounded=0;orthogonalLoop=1;jettySize=auto;html=1;" edge="1" parent="WIyWlLk6GJQsqaUBKTNV-1" source="Sqmhbc1ZD-lSzO9IeYPr-1" target="Sqmhbc1ZD-lSzO9IeYPr-3">
          <mxGeometry relative="1" as="geometry" />
        </mxCell>
        <mxCell id="Sqmhbc1ZD-lSzO9IeYPr-1" value="masukkan bilangan&lt;br&gt;x dan y" style="shape=parallelogram;perimeter=parallelogramPerimeter;whiteSpace=wrap;html=1;fixedSize=1;" vertex="1" parent="WIyWlLk6GJQsqaUBKTNV-1">
          <mxGeometry x="220" y="220" width="120" height="60" as="geometry" />
        </mxCell>
        <mxCell id="Sqmhbc1ZD-lSzO9IeYPr-6" value="" style="edgeStyle=orthogonalEdgeStyle;rounded=0;orthogonalLoop=1;jettySize=auto;html=1;" edge="1" parent="WIyWlLk6GJQsqaUBKTNV-1" source="Sqmhbc1ZD-lSzO9IeYPr-3" target="Sqmhbc1ZD-lSzO9IeYPr-5">
          <mxGeometry relative="1" as="geometry" />
        </mxCell>
        <mxCell id="Sqmhbc1ZD-lSzO9IeYPr-3" value="x = bilangan mod% 1&lt;br&gt;y = bilangan mod% bilangan" style="whiteSpace=wrap;html=1;" vertex="1" parent="WIyWlLk6GJQsqaUBKTNV-1">
          <mxGeometry x="220" y="360" width="120" height="60" as="geometry" />
        </mxCell>
        <mxCell id="Sqmhbc1ZD-lSzO9IeYPr-9" value="" style="edgeStyle=orthogonalEdgeStyle;rounded=0;orthogonalLoop=1;jettySize=auto;html=1;" edge="1" parent="WIyWlLk6GJQsqaUBKTNV-1" source="Sqmhbc1ZD-lSzO9IeYPr-5" target="Sqmhbc1ZD-lSzO9IeYPr-10">
          <mxGeometry relative="1" as="geometry" />
        </mxCell>
        <mxCell id="Sqmhbc1ZD-lSzO9IeYPr-14" value="" style="edgeStyle=orthogonalEdgeStyle;rounded=0;orthogonalLoop=1;jettySize=auto;html=1;" edge="1" parent="WIyWlLk6GJQsqaUBKTNV-1" source="Sqmhbc1ZD-lSzO9IeYPr-5" target="Sqmhbc1ZD-lSzO9IeYPr-13">
          <mxGeometry relative="1" as="geometry" />
        </mxCell>
        <mxCell id="Sqmhbc1ZD-lSzO9IeYPr-5" value="x=0 AND y=0" style="rhombus;whiteSpace=wrap;html=1;" vertex="1" parent="WIyWlLk6GJQsqaUBKTNV-1">
          <mxGeometry x="240" y="490" width="80" height="80" as="geometry" />
        </mxCell>
        <mxCell id="Sqmhbc1ZD-lSzO9IeYPr-8" value="Bilangan Prima" style="shape=parallelogram;perimeter=parallelogramPerimeter;whiteSpace=wrap;html=1;fixedSize=1;" vertex="1" parent="WIyWlLk6GJQsqaUBKTNV-1">
          <mxGeometry x="60" y="500" width="120" height="60" as="geometry" />
        </mxCell>
        <mxCell id="Sqmhbc1ZD-lSzO9IeYPr-10" value="Bukan Bilangan Prima" style="shape=parallelogram;perimeter=parallelogramPerimeter;whiteSpace=wrap;html=1;fixedSize=1;" vertex="1" parent="WIyWlLk6GJQsqaUBKTNV-1">
          <mxGeometry x="354" y="500" width="120" height="60" as="geometry" />
        </mxCell>
        <mxCell id="Sqmhbc1ZD-lSzO9IeYPr-11" value="" style="edgeStyle=orthogonalEdgeStyle;rounded=0;orthogonalLoop=1;jettySize=auto;html=1;entryX=1;entryY=0.5;entryDx=0;entryDy=0;" edge="1" parent="WIyWlLk6GJQsqaUBKTNV-1" target="Sqmhbc1ZD-lSzO9IeYPr-8">
          <mxGeometry relative="1" as="geometry">
            <mxPoint x="240" y="530" as="sourcePoint" />
            <mxPoint x="374" y="540" as="targetPoint" />
          </mxGeometry>
        </mxCell>
        <mxCell id="Sqmhbc1ZD-lSzO9IeYPr-13" value="finish" style="ellipse;whiteSpace=wrap;html=1;" vertex="1" parent="WIyWlLk6GJQsqaUBKTNV-1">
          <mxGeometry x="220" y="650" width="120" height="80" as="geometry" />
        </mxCell>
        <mxCell id="Sqmhbc1ZD-lSzO9IeYPr-15" value="" style="edgeStyle=orthogonalEdgeStyle;rounded=0;orthogonalLoop=1;jettySize=auto;html=1;exitX=0.5;exitY=1;exitDx=0;exitDy=0;entryX=1;entryY=0.5;entryDx=0;entryDy=0;" edge="1" parent="WIyWlLk6GJQsqaUBKTNV-1" source="Sqmhbc1ZD-lSzO9IeYPr-10" target="Sqmhbc1ZD-lSzO9IeYPr-13">
          <mxGeometry relative="1" as="geometry">
            <mxPoint x="290" y="580" as="sourcePoint" />
            <mxPoint x="290" y="660" as="targetPoint" />
          </mxGeometry>
        </mxCell>
        <mxCell id="Sqmhbc1ZD-lSzO9IeYPr-16" value="" style="edgeStyle=orthogonalEdgeStyle;rounded=0;orthogonalLoop=1;jettySize=auto;html=1;exitX=0.42;exitY=1.06;exitDx=0;exitDy=0;entryX=0;entryY=0.5;entryDx=0;entryDy=0;exitPerimeter=0;" edge="1" parent="WIyWlLk6GJQsqaUBKTNV-1" source="Sqmhbc1ZD-lSzO9IeYPr-8" target="Sqmhbc1ZD-lSzO9IeYPr-13">
          <mxGeometry relative="1" as="geometry">
            <mxPoint x="424" y="570" as="sourcePoint" />
            <mxPoint x="350" y="700" as="targetPoint" />
            <Array as="points">
              <mxPoint x="110" y="690" />
            </Array>
          </mxGeometry>
        </mxCell>
        <mxCell id="Sqmhbc1ZD-lSzO9IeYPr-18" value="&lt;font style=&quot;font-size: 48px;&quot;&gt;Bilangan Prima&lt;/font&gt;" style="text;html=1;strokeColor=none;fillColor=none;align=center;verticalAlign=middle;whiteSpace=wrap;rounded=0;" vertex="1" parent="WIyWlLk6GJQsqaUBKTNV-1">
          <mxGeometry x="120" y="-20" width="376" height="30" as="geometry" />
        </mxCell>
        <mxCell id="Sqmhbc1ZD-lSzO9IeYPr-23" style="edgeStyle=orthogonalEdgeStyle;rounded=0;orthogonalLoop=1;jettySize=auto;html=1;exitX=0.5;exitY=1;exitDx=0;exitDy=0;entryX=0.5;entryY=0;entryDx=0;entryDy=0;" edge="1" parent="WIyWlLk6GJQsqaUBKTNV-1" source="Sqmhbc1ZD-lSzO9IeYPr-19" target="Sqmhbc1ZD-lSzO9IeYPr-22">
          <mxGeometry relative="1" as="geometry" />
        </mxCell>
        <mxCell id="Sqmhbc1ZD-lSzO9IeYPr-19" value="start" style="ellipse;whiteSpace=wrap;html=1;" vertex="1" parent="WIyWlLk6GJQsqaUBKTNV-1">
          <mxGeometry x="990" y="80" width="120" height="80" as="geometry" />
        </mxCell>
        <mxCell id="Sqmhbc1ZD-lSzO9IeYPr-20" value="&lt;span style=&quot;font-size: 48px;&quot;&gt;Kelipatan 7 kurang dari 100&lt;/span&gt;" style="text;html=1;strokeColor=none;fillColor=none;align=center;verticalAlign=middle;whiteSpace=wrap;rounded=0;" vertex="1" parent="WIyWlLk6GJQsqaUBKTNV-1">
          <mxGeometry x="850" y="20" width="670" height="30" as="geometry" />
        </mxCell>
        <mxCell id="Sqmhbc1ZD-lSzO9IeYPr-27" value="" style="edgeStyle=orthogonalEdgeStyle;rounded=0;orthogonalLoop=1;jettySize=auto;html=1;" edge="1" parent="WIyWlLk6GJQsqaUBKTNV-1" source="Sqmhbc1ZD-lSzO9IeYPr-22" target="Sqmhbc1ZD-lSzO9IeYPr-26">
          <mxGeometry relative="1" as="geometry" />
        </mxCell>
        <mxCell id="Sqmhbc1ZD-lSzO9IeYPr-31" style="edgeStyle=orthogonalEdgeStyle;rounded=0;orthogonalLoop=1;jettySize=auto;html=1;exitX=1;exitY=0.5;exitDx=0;exitDy=0;entryX=0.979;entryY=0.632;entryDx=0;entryDy=0;entryPerimeter=0;" edge="1" parent="WIyWlLk6GJQsqaUBKTNV-1" source="Sqmhbc1ZD-lSzO9IeYPr-22" target="Sqmhbc1ZD-lSzO9IeYPr-24">
          <mxGeometry relative="1" as="geometry">
            <Array as="points">
              <mxPoint x="1200" y="260" />
              <mxPoint x="1200" y="661" />
            </Array>
          </mxGeometry>
        </mxCell>
        <mxCell id="Sqmhbc1ZD-lSzO9IeYPr-22" value="int x;&lt;br&gt;x=7;" style="shape=parallelogram;perimeter=parallelogramPerimeter;whiteSpace=wrap;html=1;fixedSize=1;" vertex="1" parent="WIyWlLk6GJQsqaUBKTNV-1">
          <mxGeometry x="990" y="230" width="120" height="60" as="geometry" />
        </mxCell>
        <mxCell id="Sqmhbc1ZD-lSzO9IeYPr-33" style="edgeStyle=orthogonalEdgeStyle;rounded=0;orthogonalLoop=1;jettySize=auto;html=1;exitX=0.5;exitY=1;exitDx=0;exitDy=0;entryX=0.412;entryY=-0.025;entryDx=0;entryDy=0;entryPerimeter=0;" edge="1" parent="WIyWlLk6GJQsqaUBKTNV-1" source="Sqmhbc1ZD-lSzO9IeYPr-24" target="Sqmhbc1ZD-lSzO9IeYPr-32">
          <mxGeometry relative="1" as="geometry" />
        </mxCell>
        <mxCell id="Sqmhbc1ZD-lSzO9IeYPr-24" value="x&amp;lt;=100" style="rhombus;whiteSpace=wrap;html=1;" vertex="1" parent="WIyWlLk6GJQsqaUBKTNV-1">
          <mxGeometry x="1010" y="610" width="80" height="80" as="geometry" />
        </mxCell>
        <mxCell id="Sqmhbc1ZD-lSzO9IeYPr-30" style="edgeStyle=orthogonalEdgeStyle;rounded=0;orthogonalLoop=1;jettySize=auto;html=1;exitX=0.5;exitY=1;exitDx=0;exitDy=0;" edge="1" parent="WIyWlLk6GJQsqaUBKTNV-1" source="Sqmhbc1ZD-lSzO9IeYPr-26" target="Sqmhbc1ZD-lSzO9IeYPr-28">
          <mxGeometry relative="1" as="geometry" />
        </mxCell>
        <mxCell id="Sqmhbc1ZD-lSzO9IeYPr-26" value="x+7" style="whiteSpace=wrap;html=1;" vertex="1" parent="WIyWlLk6GJQsqaUBKTNV-1">
          <mxGeometry x="990" y="370" width="120" height="60" as="geometry" />
        </mxCell>
        <mxCell id="Sqmhbc1ZD-lSzO9IeYPr-29" style="edgeStyle=orthogonalEdgeStyle;rounded=0;orthogonalLoop=1;jettySize=auto;html=1;exitX=0.5;exitY=1;exitDx=0;exitDy=0;entryX=0.5;entryY=0;entryDx=0;entryDy=0;" edge="1" parent="WIyWlLk6GJQsqaUBKTNV-1" source="Sqmhbc1ZD-lSzO9IeYPr-28" target="Sqmhbc1ZD-lSzO9IeYPr-24">
          <mxGeometry relative="1" as="geometry" />
        </mxCell>
        <mxCell id="Sqmhbc1ZD-lSzO9IeYPr-28" value="write x" style="shape=parallelogram;perimeter=parallelogramPerimeter;whiteSpace=wrap;html=1;fixedSize=1;" vertex="1" parent="WIyWlLk6GJQsqaUBKTNV-1">
          <mxGeometry x="990" y="470" width="120" height="70" as="geometry" />
        </mxCell>
        <mxCell id="Sqmhbc1ZD-lSzO9IeYPr-32" value="finish" style="ellipse;whiteSpace=wrap;html=1;" vertex="1" parent="WIyWlLk6GJQsqaUBKTNV-1">
          <mxGeometry x="1000" y="730" width="120" height="80" as="geometry" />
        </mxCell>
        <mxCell id="Sqmhbc1ZD-lSzO9IeYPr-34" value="&lt;span style=&quot;font-size: 48px;&quot;&gt;luas trapesium&lt;/span&gt;" style="text;html=1;strokeColor=none;fillColor=none;align=center;verticalAlign=middle;whiteSpace=wrap;rounded=0;" vertex="1" parent="WIyWlLk6GJQsqaUBKTNV-1">
          <mxGeometry x="110" y="930" width="670" height="30" as="geometry" />
        </mxCell>
        <mxCell id="Sqmhbc1ZD-lSzO9IeYPr-37" style="edgeStyle=orthogonalEdgeStyle;rounded=0;orthogonalLoop=1;jettySize=auto;html=1;exitX=0.5;exitY=1;exitDx=0;exitDy=0;" edge="1" parent="WIyWlLk6GJQsqaUBKTNV-1" source="Sqmhbc1ZD-lSzO9IeYPr-35" target="Sqmhbc1ZD-lSzO9IeYPr-36">
          <mxGeometry relative="1" as="geometry" />
        </mxCell>
        <mxCell id="Sqmhbc1ZD-lSzO9IeYPr-35" value="start" style="ellipse;whiteSpace=wrap;html=1;" vertex="1" parent="WIyWlLk6GJQsqaUBKTNV-1">
          <mxGeometry x="370" y="1000" width="120" height="80" as="geometry" />
        </mxCell>
        <mxCell id="Sqmhbc1ZD-lSzO9IeYPr-39" value="" style="edgeStyle=orthogonalEdgeStyle;rounded=0;orthogonalLoop=1;jettySize=auto;html=1;" edge="1" parent="WIyWlLk6GJQsqaUBKTNV-1" source="Sqmhbc1ZD-lSzO9IeYPr-36" target="Sqmhbc1ZD-lSzO9IeYPr-38">
          <mxGeometry relative="1" as="geometry" />
        </mxCell>
        <mxCell id="Sqmhbc1ZD-lSzO9IeYPr-36" value="masukkan nilai alas, atas, tinggi" style="shape=parallelogram;perimeter=parallelogramPerimeter;whiteSpace=wrap;html=1;fixedSize=1;" vertex="1" parent="WIyWlLk6GJQsqaUBKTNV-1">
          <mxGeometry x="370" y="1150" width="120" height="60" as="geometry" />
        </mxCell>
        <mxCell id="Sqmhbc1ZD-lSzO9IeYPr-43" style="edgeStyle=orthogonalEdgeStyle;rounded=0;orthogonalLoop=1;jettySize=auto;html=1;exitX=0.5;exitY=1;exitDx=0;exitDy=0;" edge="1" parent="WIyWlLk6GJQsqaUBKTNV-1" source="Sqmhbc1ZD-lSzO9IeYPr-38" target="Sqmhbc1ZD-lSzO9IeYPr-40">
          <mxGeometry relative="1" as="geometry" />
        </mxCell>
        <mxCell id="Sqmhbc1ZD-lSzO9IeYPr-38" value="luas = (alas + atas) / 2 * tinggi" style="whiteSpace=wrap;html=1;" vertex="1" parent="WIyWlLk6GJQsqaUBKTNV-1">
          <mxGeometry x="370" y="1290" width="120" height="60" as="geometry" />
        </mxCell>
        <mxCell id="Sqmhbc1ZD-lSzO9IeYPr-44" style="edgeStyle=orthogonalEdgeStyle;rounded=0;orthogonalLoop=1;jettySize=auto;html=1;exitX=0.5;exitY=1;exitDx=0;exitDy=0;entryX=0.404;entryY=0.029;entryDx=0;entryDy=0;entryPerimeter=0;" edge="1" parent="WIyWlLk6GJQsqaUBKTNV-1" source="Sqmhbc1ZD-lSzO9IeYPr-40" target="Sqmhbc1ZD-lSzO9IeYPr-41">
          <mxGeometry relative="1" as="geometry" />
        </mxCell>
        <mxCell id="Sqmhbc1ZD-lSzO9IeYPr-40" value="hasil luas" style="shape=parallelogram;perimeter=parallelogramPerimeter;whiteSpace=wrap;html=1;fixedSize=1;" vertex="1" parent="WIyWlLk6GJQsqaUBKTNV-1">
          <mxGeometry x="376" y="1380" width="120" height="60" as="geometry" />
        </mxCell>
        <mxCell id="Sqmhbc1ZD-lSzO9IeYPr-41" value="finish" style="ellipse;whiteSpace=wrap;html=1;" vertex="1" parent="WIyWlLk6GJQsqaUBKTNV-1">
          <mxGeometry x="385" y="1480" width="120" height="80" as="geometry" />
        </mxCell>
      </root>
    </mxGraphModel>
  </diagram>
</mxfile>
